<svg xmlns="http://www.w3.org/2000/svg" viewBox="0 0 24 24" id="scrutinizer-ci"><path d="m3.991 19.862.005-.004.002-.002zM22.2 12.943c.007.014.011.029.017.043l.005.008-.022-.051zm-4.304 10.944c-.131.004-.262.005-.393.008l-.003.001.396-.009z"></path><path fill="#868E91" d="M22.101 19.055a8.207 8.207 0 0 0 .397-2.55 8.346 8.346 0 0 0-.775-3.519 8.583 8.583 0 0 0-2.307-2.859l-.017-.013a6.833 6.833 0 0 0-2.35-.976l-.045-.008c-.246-.06-4.052-.106-7.812-.121l.001-.002c-3.759-.015-7.472 0-7.532.06-.126.126-.06.798.06 1.35a5.66 5.66 0 0 0 1.834 2.753l.01.008a7.501 7.501 0 0 0 3.264 1.581l.049.009c.366.126 1.044.126 4.598.126 4.237 0 4.916.06 5.221.24.142.107.265.23.369.367l.003.005c.18.24.181.307.181.979s-.066.732-.186 1.044a1.48 1.48 0 0 1-.419.362l-.007.004c-.186.12-.307.119-4.358.179-4.671 0-5.156 0-6.321.432a6.458 6.458 0 0 0-2.463 1.352c-1.163 1.038-1.84 2.202-1.96 3.426l.06.611C3.891 23.962 6.591 24 9.3 24c2.577 0 5.146-.037 7.707-.105l.489-.119c.285-.069.531-.153.766-.256l-.029.011.367-.18a7.768 7.768 0 0 0 3.484-4.242l.017-.054z"></path><path fill="#08458E" d="M22.461.12C22.401 0 21.421 0 14.863 0L6.877.06a6.172 6.172 0 0 0-3.732 2.488l-.013.02a6.328 6.328 0 0 0-1.348 2.596l-.009.044-.12.553-.119.857c-.06.799-.06 1.351.12 1.471h5.276c.06 0-.186-.246-.186-.672 0-.738.252-.924.552-1.23.552-.426 2.946-.12 4.729-.246 2.449 0 4.603-.06 4.849-.12 2.701-.427 5.031-2.388 5.524-4.536.121-.547.121-1.105.061-1.165z"></path></svg>